%TF.GenerationSoftware,KiCad,Pcbnew,10.0.6*%
%TF.CreationDate,2026-09-16T20:20:41-05:00*%
%TF.ProjectId,c6gdo,63366764-6f2e-46b6-9963-61645f706362,1.0*%
%TF.SameCoordinates,Original*%
%TF.FileFunction,Copper,L2,Bot*%
%TF.FilePolarity,Positive*%
%FSLAX46Y46*%
G04 Gerber Fmt 4.6, Leading zero omitted, Abs format (unit mm)*
G04 Created by KiCad (PCBNEW 10.0.6) date 2026-09-16 20:20:41*
%MOMM*%
%LPD*%
G01*
G04 APERTURE LIST*
G04 Aperture macros list*
%AMRoundRect*
0 Rectangle with rounded corners*
0 $1 Rounding radius*
0 $2 $3 $4 $5 $6 $7 $8 $9 X,Y pos of 4 corners*
0 Add a 4 corners polygon primitive as box body*
4,1,4,$2,$3,$4,$5,$6,$7,$8,$9,$2,$3,0*
0 Add four circle primitives for the rounded corners*
1,1,$1+$1,$2,$3*
1,1,$1+$1,$4,$5*
1,1,$1+$1,$6,$7*
1,1,$1+$1,$8,$9*
0 Add four rect primitives between the rounded corners*
20,1,$1+$1,$2,$3,$4,$5,0*
20,1,$1+$1,$4,$5,$6,$7,0*
20,1,$1+$1,$6,$7,$8,$9,0*
20,1,$1+$1,$8,$9,$2,$3,0*%
G04 Aperture macros list end*
%TA.AperFunction,ComponentPad*%
%ADD10C,1.800000*%
%TD*%
%TA.AperFunction,SMDPad,CuDef*%
%ADD11RoundRect,0.250000X-0.450000X0.350000X-0.450000X-0.350000X0.450000X-0.350000X0.450000X0.350000X0*%
%TD*%
%TA.AperFunction,SMDPad,CuDef*%
%ADD12RoundRect,0.200000X0.200000X-0.750000X0.200000X0.750000X-0.200000X0.750000X-0.200000X-0.750000X0*%
%TD*%
%TA.AperFunction,SMDPad,CuDef*%
%ADD13RoundRect,0.162500X-0.162500X0.387500X-0.162500X-0.387500X0.162500X-0.387500X0.162500X0.387500X0*%
%TD*%
%TA.AperFunction,SMDPad,CuDef*%
%ADD14RoundRect,0.250000X0.450000X-0.350000X0.450000X0.350000X-0.450000X0.350000X-0.450000X-0.350000X0*%
%TD*%
%TA.AperFunction,SMDPad,CuDef*%
%ADD15RoundRect,0.200000X-0.200000X0.750000X-0.200000X-0.750000X0.200000X-0.750000X0.200000X0.750000X0*%
%TD*%
%TA.AperFunction,ViaPad*%
%ADD16C,0.600000*%
%TD*%
%TA.AperFunction,Conductor*%
%ADD17C,0.250000*%
%TD*%
%TA.AperFunction,Conductor*%
%ADD18C,0.500000*%
%TD*%
G04 APERTURE END LIST*
D10*
%TO.P,J1,1,Pin_1_1*%
%TO.N,GND*%
X77990000Y-51700000D03*
%TO.P,J1,2,Pin_2_2*%
%TO.N,RED{slash}CTRL*%
X75449999Y-46700000D03*
%TD*%
D11*
%TO.P,R5,1*%
%TO.N,+3V3*%
X74200000Y-50200000D03*
%TO.P,R5,2*%
%TO.N,/ESP_RX*%
X74200000Y-52200000D03*
%TD*%
D12*
%TO.P,Q2,1,G_1*%
%TO.N,Net-(Q2-G)*%
X61275000Y-47855000D03*
%TO.P,Q2,2,S_2*%
%TO.N,GND*%
X59375000Y-47855000D03*
%TO.P,Q2,3,D_3*%
%TO.N,RED{slash}CTRL*%
X60325000Y-44855000D03*
%TD*%
D13*
%TO.P,D1,1,K_1*%
%TO.N,RED{slash}CTRL*%
X78000000Y-46250000D03*
%TO.P,D1,2,A_2*%
%TO.N,GND*%
X78000000Y-48850000D03*
%TD*%
D11*
%TO.P,R2,1*%
%TO.N,Net-(Q2-G)*%
X62230000Y-51070000D03*
%TO.P,R2,2*%
%TO.N,/ESP_TX*%
X62230000Y-53070000D03*
%TD*%
%TO.P,R3,1*%
%TO.N,RED{slash}CTRL*%
X64135000Y-44990000D03*
%TO.P,R3,2*%
%TO.N,Net-(Q1-G)*%
X64135000Y-46990000D03*
%TD*%
D14*
%TO.P,R1,1*%
%TO.N,/ESP_TX*%
X59690000Y-53070000D03*
%TO.P,R1,2*%
%TO.N,GND*%
X59690000Y-51070000D03*
%TD*%
D15*
%TO.P,Q1,1,G_1*%
%TO.N,Net-(Q1-G)*%
X65090000Y-49935000D03*
%TO.P,Q1,2,S_2*%
%TO.N,GND*%
X66990000Y-49935000D03*
%TO.P,Q1,3,D_3*%
%TO.N,/ESP_RX*%
X66040000Y-52935000D03*
%TD*%
D14*
%TO.P,R4,1*%
%TO.N,GND*%
X66675000Y-46990000D03*
%TO.P,R4,2*%
%TO.N,RED{slash}CTRL*%
X66675000Y-44990000D03*
%TD*%
D16*
%TO.N,GND*%
X68750000Y-44750000D03*
X60400000Y-42900000D03*
X60400000Y-54600000D03*
X57200000Y-48750000D03*
X65700000Y-48200000D03*
X66800000Y-54600000D03*
X57200000Y-51675000D03*
X73200000Y-54600000D03*
X62700000Y-47900000D03*
X76400000Y-48750000D03*
X67200000Y-51800000D03*
X79600000Y-48750000D03*
X63600000Y-54600000D03*
X73200000Y-45825000D03*
X57200000Y-54600000D03*
X79600000Y-42900000D03*
X79600000Y-51675000D03*
X66800000Y-42900000D03*
X57200000Y-45825000D03*
X62865000Y-45773886D03*
X76400000Y-51675000D03*
X70978400Y-47376500D03*
X73200000Y-48750000D03*
X63103881Y-49833670D03*
X54000000Y-42900000D03*
X57200000Y-42900000D03*
X79600000Y-54600000D03*
X76400000Y-42900000D03*
X79600000Y-45825000D03*
X60393762Y-49579170D03*
%TO.N,/ESP_TX*%
X58055000Y-53070000D03*
%TO.N,/ESP_RX*%
X67310000Y-53340000D03*
X70978400Y-52456500D03*
%TO.N,+3V3*%
X70978400Y-50200000D03*
%TD*%
%TO.N,RED{slash}CTRL*%
D17*
X66770000Y-45085000D02*
X66675000Y-44990000D01*
X73000000Y-43000000D02*
X75449999Y-45449999D01*
X66675000Y-44990000D02*
X66890000Y-44775000D01*
X66675000Y-44990000D02*
X64135000Y-44990000D01*
D18*
X77750000Y-46500000D02*
X75649999Y-46500000D01*
D17*
X60325000Y-44855000D02*
X64000000Y-44855000D01*
X69000000Y-43000000D02*
X73000000Y-43000000D01*
D18*
X75649999Y-46500000D02*
X75449999Y-46700000D01*
D17*
X75449999Y-45449999D02*
X75449999Y-46700000D01*
X66890000Y-44775000D02*
X67225000Y-44775000D01*
D18*
X78000000Y-46250000D02*
X77750000Y-46500000D01*
D17*
X67225000Y-44775000D02*
X69000000Y-43000000D01*
X64000000Y-44855000D02*
X64135000Y-44990000D01*
%TO.N,/ESP_TX*%
X59690000Y-53070000D02*
X62230000Y-53070000D01*
X58055000Y-53070000D02*
X59690000Y-53070000D01*
%TO.N,/ESP_RX*%
X66040000Y-52935000D02*
X66445000Y-53340000D01*
X74200000Y-52200000D02*
X71234900Y-52200000D01*
X66445000Y-53340000D02*
X67310000Y-53340000D01*
X71234900Y-52200000D02*
X70978400Y-52456500D01*
%TO.N,+3V3*%
X70978400Y-50200000D02*
X74200000Y-50200000D01*
X73916500Y-49916500D02*
X74200000Y-50200000D01*
%TO.N,Net-(Q2-G)*%
X62230000Y-48810000D02*
X61275000Y-47855000D01*
X62230000Y-51070000D02*
X62230000Y-48810000D01*
%TO.N,Net-(Q1-G)*%
X64770000Y-49615000D02*
X65090000Y-49935000D01*
X64135000Y-46990000D02*
X64770000Y-47625000D01*
X64770000Y-47625000D02*
X64770000Y-49615000D01*
%TD*%
%TA.AperFunction,Conductor*%
%TO.N,GND*%
G36*
X68472586Y-42430185D02*
G01*
X68518341Y-42482989D01*
X68528285Y-42552147D01*
X68499260Y-42615703D01*
X68493228Y-42622181D01*
X67262227Y-43853181D01*
X67200904Y-43886666D01*
X67174546Y-43889500D01*
X66174998Y-43889500D01*
X66174980Y-43889501D01*
X66072203Y-43900000D01*
X66072200Y-43900001D01*
X65905668Y-43955185D01*
X65905663Y-43955187D01*
X65756342Y-44047289D01*
X65632289Y-44171342D01*
X65549481Y-44305597D01*
X65497533Y-44352321D01*
X65443942Y-44364500D01*
X65366058Y-44364500D01*
X65299019Y-44344815D01*
X65260519Y-44305597D01*
X65177712Y-44171344D01*
X65053656Y-44047288D01*
X64904334Y-43955186D01*
X64737797Y-43900001D01*
X64737795Y-43900000D01*
X64635010Y-43889500D01*
X63634998Y-43889500D01*
X63634980Y-43889501D01*
X63532203Y-43900000D01*
X63532200Y-43900001D01*
X63365668Y-43955185D01*
X63365663Y-43955187D01*
X63216342Y-44047289D01*
X63092288Y-44171343D01*
X63087807Y-44177011D01*
X63086642Y-44176089D01*
X63040797Y-44217323D01*
X62987210Y-44229500D01*
X61349500Y-44229500D01*
X61282461Y-44209815D01*
X61236706Y-44157011D01*
X61225500Y-44105500D01*
X61225500Y-44048386D01*
X61219086Y-43977807D01*
X61219086Y-43977804D01*
X61168478Y-43815394D01*
X61080472Y-43669815D01*
X61080470Y-43669813D01*
X61080469Y-43669811D01*
X60960188Y-43549530D01*
X60814606Y-43461522D01*
X60652196Y-43410914D01*
X60652194Y-43410913D01*
X60652192Y-43410913D01*
X60602778Y-43406423D01*
X60581616Y-43404500D01*
X60068384Y-43404500D01*
X60049145Y-43406248D01*
X59997807Y-43410913D01*
X59835393Y-43461522D01*
X59689811Y-43549530D01*
X59569530Y-43669811D01*
X59481522Y-43815393D01*
X59430913Y-43977807D01*
X59425782Y-44034275D01*
X59424500Y-44048384D01*
X59424500Y-45661616D01*
X59425662Y-45674403D01*
X59430913Y-45732192D01*
X59430913Y-45732194D01*
X59430914Y-45732196D01*
X59481522Y-45894606D01*
X59565386Y-46033334D01*
X59569530Y-46040188D01*
X59689810Y-46160468D01*
X59689814Y-46160471D01*
X59689815Y-46160472D01*
X59714848Y-46175605D01*
X59715831Y-46176199D01*
X59763019Y-46227726D01*
X59774858Y-46296586D01*
X59747590Y-46360914D01*
X59689871Y-46400289D01*
X59640468Y-46405808D01*
X59631570Y-46405000D01*
X59625000Y-46405000D01*
X59625000Y-49304999D01*
X59631581Y-49304999D01*
X59702102Y-49298591D01*
X59702107Y-49298590D01*
X59864396Y-49248018D01*
X60009877Y-49160072D01*
X60130072Y-49039877D01*
X60218590Y-48893451D01*
X60270118Y-48846264D01*
X60338977Y-48834425D01*
X60403306Y-48861694D01*
X60430824Y-48893451D01*
X60431521Y-48894605D01*
X60431522Y-48894606D01*
X60432125Y-48895603D01*
X60519530Y-49040188D01*
X60639811Y-49160469D01*
X60639813Y-49160470D01*
X60639815Y-49160472D01*
X60785394Y-49248478D01*
X60947804Y-49299086D01*
X61018384Y-49305500D01*
X61018387Y-49305500D01*
X61480500Y-49305500D01*
X61547539Y-49325185D01*
X61593294Y-49377989D01*
X61604500Y-49429500D01*
X61604500Y-49897983D01*
X61584815Y-49965022D01*
X61532011Y-50010777D01*
X61519510Y-50015686D01*
X61460666Y-50035186D01*
X61460663Y-50035187D01*
X61311342Y-50127289D01*
X61187289Y-50251342D01*
X61095187Y-50400663D01*
X61095184Y-50400672D01*
X61077441Y-50454214D01*
X61037668Y-50511658D01*
X60973152Y-50538480D01*
X60904376Y-50526164D01*
X60853177Y-50478620D01*
X60842030Y-50454211D01*
X60824359Y-50400882D01*
X60824356Y-50400875D01*
X60732315Y-50251654D01*
X60608345Y-50127684D01*
X60459124Y-50035643D01*
X60459119Y-50035641D01*
X60292697Y-49980494D01*
X60292690Y-49980493D01*
X60189986Y-49970000D01*
X59940000Y-49970000D01*
X59940000Y-50946000D01*
X59920315Y-51013039D01*
X59867511Y-51058794D01*
X59816000Y-51070000D01*
X59690000Y-51070000D01*
X59690000Y-51196000D01*
X59670315Y-51263039D01*
X59617511Y-51308794D01*
X59566000Y-51320000D01*
X58490001Y-51320000D01*
X58490001Y-51469986D01*
X58500494Y-51572697D01*
X58555641Y-51739119D01*
X58555643Y-51739124D01*
X58647684Y-51888345D01*
X58741304Y-51981965D01*
X58774789Y-52043288D01*
X58769805Y-52112980D01*
X58741305Y-52157327D01*
X58647286Y-52251346D01*
X58604874Y-52320107D01*
X58552926Y-52366831D01*
X58483963Y-52378052D01*
X58440437Y-52361826D01*
X58439554Y-52363479D01*
X58434172Y-52360602D01*
X58288501Y-52300264D01*
X58288489Y-52300261D01*
X58133845Y-52269500D01*
X58133842Y-52269500D01*
X57976158Y-52269500D01*
X57976155Y-52269500D01*
X57821510Y-52300261D01*
X57821498Y-52300264D01*
X57675827Y-52360602D01*
X57675814Y-52360609D01*
X57544711Y-52448210D01*
X57544707Y-52448213D01*
X57433213Y-52559707D01*
X57433210Y-52559711D01*
X57345609Y-52690814D01*
X57345602Y-52690827D01*
X57285264Y-52836498D01*
X57285261Y-52836510D01*
X57254500Y-52991153D01*
X57254500Y-53148846D01*
X57285261Y-53303489D01*
X57285264Y-53303501D01*
X57345602Y-53449172D01*
X57345609Y-53449185D01*
X57433210Y-53580288D01*
X57433213Y-53580292D01*
X57544707Y-53691786D01*
X57544711Y-53691789D01*
X57675814Y-53779390D01*
X57675827Y-53779397D01*
X57821498Y-53839735D01*
X57821503Y-53839737D01*
X57976153Y-53870499D01*
X57976156Y-53870500D01*
X57976158Y-53870500D01*
X58133844Y-53870500D01*
X58133845Y-53870499D01*
X58288497Y-53839737D01*
X58434179Y-53779394D01*
X58434184Y-53779390D01*
X58439546Y-53776525D01*
X58440700Y-53778685D01*
X58497081Y-53761011D01*
X58564467Y-53779472D01*
X58604874Y-53819892D01*
X58647288Y-53888656D01*
X58771344Y-54012712D01*
X58920666Y-54104814D01*
X59087203Y-54159999D01*
X59189991Y-54170500D01*
X60190008Y-54170499D01*
X60190016Y-54170498D01*
X60190019Y-54170498D01*
X60246302Y-54164748D01*
X60292797Y-54159999D01*
X60459334Y-54104814D01*
X60608656Y-54012712D01*
X60732712Y-53888656D01*
X60815519Y-53754402D01*
X60867467Y-53707679D01*
X60921058Y-53695500D01*
X60998942Y-53695500D01*
X61065981Y-53715185D01*
X61104479Y-53754401D01*
X61187288Y-53888656D01*
X61311344Y-54012712D01*
X61460666Y-54104814D01*
X61627203Y-54159999D01*
X61729991Y-54170500D01*
X62730008Y-54170499D01*
X62730016Y-54170498D01*
X62730019Y-54170498D01*
X62786302Y-54164748D01*
X62832797Y-54159999D01*
X62999334Y-54104814D01*
X63148656Y-54012712D01*
X63272712Y-53888656D01*
X63364814Y-53739334D01*
X63419999Y-53572797D01*
X63430500Y-53470009D01*
X63430499Y-52669992D01*
X63419999Y-52567203D01*
X63364814Y-52400666D01*
X63272712Y-52251344D01*
X63179049Y-52157681D01*
X63145564Y-52096358D01*
X63150548Y-52026666D01*
X63179049Y-51982319D01*
X63215161Y-51946207D01*
X63272712Y-51888656D01*
X63364814Y-51739334D01*
X63419999Y-51572797D01*
X63430500Y-51470009D01*
X63430499Y-50669992D01*
X63419999Y-50567203D01*
X63364814Y-50400666D01*
X63272712Y-50251344D01*
X63148656Y-50127288D01*
X62999334Y-50035186D01*
X62940493Y-50015688D01*
X62883051Y-49975916D01*
X62856228Y-49911400D01*
X62855500Y-49897983D01*
X62855500Y-48748393D01*
X62855499Y-48748389D01*
X62838239Y-48661616D01*
X62831463Y-48627548D01*
X62815317Y-48588568D01*
X62795830Y-48541521D01*
X62784314Y-48513719D01*
X62784310Y-48513712D01*
X62764791Y-48484499D01*
X62764791Y-48484500D01*
X62715858Y-48411267D01*
X62715855Y-48411263D01*
X62625637Y-48321045D01*
X62625606Y-48321016D01*
X62211819Y-47907229D01*
X62178334Y-47845906D01*
X62175500Y-47819548D01*
X62175500Y-47048386D01*
X62173643Y-47027951D01*
X62169086Y-46977804D01*
X62118478Y-46815394D01*
X62030472Y-46669815D01*
X62030470Y-46669813D01*
X62030469Y-46669811D01*
X61910188Y-46549530D01*
X61764606Y-46461522D01*
X61754844Y-46458480D01*
X61602196Y-46410914D01*
X61602194Y-46410913D01*
X61602192Y-46410913D01*
X61552778Y-46406423D01*
X61531616Y-46404500D01*
X61018384Y-46404500D01*
X61017276Y-46404600D01*
X61010510Y-46405215D01*
X60941965Y-46391673D01*
X60891623Y-46343222D01*
X60875467Y-46275246D01*
X60898627Y-46209326D01*
X60935146Y-46175608D01*
X60960185Y-46160472D01*
X61080472Y-46040185D01*
X61168478Y-45894606D01*
X61219086Y-45732196D01*
X61225500Y-45661616D01*
X61225500Y-45604500D01*
X61245185Y-45537461D01*
X61297989Y-45491706D01*
X61349500Y-45480500D01*
X62851385Y-45480500D01*
X62918424Y-45500185D01*
X62964179Y-45552989D01*
X62969089Y-45565491D01*
X62991048Y-45631758D01*
X63000186Y-45659333D01*
X63000187Y-45659336D01*
X63033399Y-45713181D01*
X63079322Y-45787635D01*
X63092289Y-45808657D01*
X63185951Y-45902319D01*
X63219436Y-45963642D01*
X63214452Y-46033334D01*
X63185951Y-46077681D01*
X63092289Y-46171342D01*
X63000187Y-46320663D01*
X63000185Y-46320668D01*
X62972406Y-46404500D01*
X62945001Y-46487203D01*
X62945001Y-46487204D01*
X62945000Y-46487204D01*
X62934500Y-46589983D01*
X62934500Y-47390001D01*
X62934501Y-47390019D01*
X62945000Y-47492796D01*
X62945001Y-47492799D01*
X62984621Y-47612363D01*
X63000186Y-47659334D01*
X63092288Y-47808656D01*
X63216344Y-47932712D01*
X63365666Y-48024814D01*
X63532203Y-48079999D01*
X63634991Y-48090500D01*
X64020500Y-48090499D01*
X64087539Y-48110183D01*
X64133294Y-48162987D01*
X64144500Y-48214499D01*
X64144500Y-49676606D01*
X64168537Y-49797452D01*
X64169592Y-49799998D01*
X64178218Y-49820823D01*
X64178217Y-49820823D01*
X64180054Y-49825255D01*
X64189500Y-49872724D01*
X64189500Y-50741613D01*
X64195913Y-50812192D01*
X64195913Y-50812194D01*
X64195914Y-50812196D01*
X64227769Y-50914425D01*
X64246522Y-50974606D01*
X64334530Y-51120188D01*
X64454811Y-51240469D01*
X64454813Y-51240470D01*
X64454815Y-51240472D01*
X64600394Y-51328478D01*
X64762804Y-51379086D01*
X64833384Y-51385500D01*
X64833387Y-51385500D01*
X65346611Y-51385500D01*
X65346616Y-51385500D01*
X65354479Y-51384785D01*
X65423023Y-51398320D01*
X65473370Y-51446766D01*
X65489532Y-51514740D01*
X65466380Y-51580663D01*
X65429853Y-51614392D01*
X65404811Y-51629530D01*
X65284530Y-51749811D01*
X65196522Y-51895393D01*
X65145913Y-52057807D01*
X65139500Y-52128386D01*
X65139500Y-53741613D01*
X65145913Y-53812192D01*
X65145913Y-53812194D01*
X65145914Y-53812196D01*
X65196522Y-53974606D01*
X65278211Y-54109736D01*
X65284530Y-54120188D01*
X65404811Y-54240469D01*
X65404813Y-54240470D01*
X65404815Y-54240472D01*
X65550394Y-54328478D01*
X65712804Y-54379086D01*
X65783384Y-54385500D01*
X65783387Y-54385500D01*
X66296613Y-54385500D01*
X66296616Y-54385500D01*
X66367196Y-54379086D01*
X66529606Y-54328478D01*
X66675185Y-54240472D01*
X66795472Y-54120185D01*
X66801673Y-54109927D01*
X66853195Y-54062737D01*
X66922053Y-54050894D01*
X66955240Y-54059508D01*
X67076503Y-54109737D01*
X67231153Y-54140499D01*
X67231156Y-54140500D01*
X67231158Y-54140500D01*
X67388844Y-54140500D01*
X67388845Y-54140499D01*
X67543497Y-54109737D01*
X67689179Y-54049394D01*
X67820289Y-53961789D01*
X67931789Y-53850289D01*
X68019394Y-53719179D01*
X68079737Y-53573497D01*
X68110500Y-53418842D01*
X68110500Y-53261158D01*
X68110500Y-53261155D01*
X68110499Y-53261153D01*
X68091551Y-53165897D01*
X68079737Y-53106503D01*
X68077043Y-53100000D01*
X68019397Y-52960827D01*
X68019390Y-52960814D01*
X67931789Y-52829711D01*
X67931786Y-52829707D01*
X67820292Y-52718213D01*
X67820288Y-52718210D01*
X67689185Y-52630609D01*
X67689172Y-52630602D01*
X67543501Y-52570264D01*
X67543489Y-52570261D01*
X67388845Y-52539500D01*
X67388842Y-52539500D01*
X67231158Y-52539500D01*
X67231155Y-52539500D01*
X67088691Y-52567838D01*
X67019100Y-52561611D01*
X66963922Y-52518748D01*
X66940678Y-52452858D01*
X66940500Y-52446221D01*
X66940500Y-52128386D01*
X66939100Y-52112980D01*
X66934086Y-52057804D01*
X66883478Y-51895394D01*
X66795472Y-51749815D01*
X66795470Y-51749813D01*
X66795469Y-51749811D01*
X66675188Y-51629530D01*
X66673224Y-51628343D01*
X66649165Y-51613798D01*
X66601980Y-51562270D01*
X66590142Y-51493411D01*
X66617412Y-51429082D01*
X66675131Y-51389709D01*
X66724549Y-51384193D01*
X66733408Y-51384998D01*
X66733426Y-51384999D01*
X67240000Y-51384999D01*
X67246581Y-51384999D01*
X67317102Y-51378591D01*
X67317107Y-51378590D01*
X67479396Y-51328018D01*
X67624877Y-51240072D01*
X67745072Y-51119877D01*
X67833019Y-50974395D01*
X67883590Y-50812106D01*
X67890000Y-50741572D01*
X67890000Y-50185000D01*
X67240000Y-50185000D01*
X67240000Y-51384999D01*
X66733426Y-51384999D01*
X66739999Y-51384998D01*
X66740000Y-51384998D01*
X66740000Y-50121153D01*
X70177900Y-50121153D01*
X70177900Y-50278846D01*
X70208661Y-50433489D01*
X70208664Y-50433501D01*
X70269002Y-50579172D01*
X70269009Y-50579185D01*
X70356610Y-50710288D01*
X70356613Y-50710292D01*
X70468107Y-50821786D01*
X70468111Y-50821789D01*
X70599214Y-50909390D01*
X70599227Y-50909397D01*
X70744898Y-50969735D01*
X70744903Y-50969737D01*
X70899553Y-51000499D01*
X70899556Y-51000500D01*
X70899558Y-51000500D01*
X71057244Y-51000500D01*
X71057245Y-51000499D01*
X71211897Y-50969737D01*
X71357579Y-50909394D01*
X71451859Y-50846398D01*
X71518536Y-50825520D01*
X71520750Y-50825500D01*
X72968942Y-50825500D01*
X73035981Y-50845185D01*
X73074479Y-50884401D01*
X73157288Y-51018656D01*
X73157289Y-51018657D01*
X73250951Y-51112319D01*
X73284436Y-51173642D01*
X73279452Y-51243334D01*
X73250951Y-51287681D01*
X73157289Y-51381342D01*
X73152128Y-51389709D01*
X73075010Y-51514740D01*
X73074481Y-51515597D01*
X73022533Y-51562321D01*
X72968942Y-51574500D01*
X71173289Y-51574500D01*
X71112871Y-51586518D01*
X71052448Y-51598537D01*
X71052443Y-51598538D01*
X71018446Y-51612620D01*
X71005297Y-51618067D01*
X70991097Y-51623949D01*
X70935128Y-51647131D01*
X70905481Y-51654558D01*
X70905532Y-51654811D01*
X70900407Y-51655830D01*
X70899850Y-51655970D01*
X70899563Y-51655998D01*
X70744910Y-51686761D01*
X70744898Y-51686764D01*
X70599227Y-51747102D01*
X70599214Y-51747109D01*
X70468111Y-51834710D01*
X70468107Y-51834713D01*
X70356613Y-51946207D01*
X70356610Y-51946211D01*
X70269009Y-52077314D01*
X70269002Y-52077327D01*
X70208664Y-52222998D01*
X70208661Y-52223010D01*
X70177900Y-52377653D01*
X70177900Y-52535346D01*
X70208661Y-52689989D01*
X70208664Y-52690001D01*
X70269002Y-52835672D01*
X70269009Y-52835685D01*
X70356610Y-52966788D01*
X70356613Y-52966792D01*
X70468107Y-53078286D01*
X70468111Y-53078289D01*
X70599214Y-53165890D01*
X70599227Y-53165897D01*
X70744898Y-53226235D01*
X70744903Y-53226237D01*
X70899553Y-53256999D01*
X70899556Y-53257000D01*
X70899558Y-53257000D01*
X71057244Y-53257000D01*
X71057245Y-53256999D01*
X71211897Y-53226237D01*
X71357579Y-53165894D01*
X71488689Y-53078289D01*
X71600189Y-52966789D01*
X71657773Y-52880609D01*
X71711385Y-52835804D01*
X71760875Y-52825500D01*
X72968942Y-52825500D01*
X73035981Y-52845185D01*
X73074479Y-52884401D01*
X73157288Y-53018656D01*
X73281344Y-53142712D01*
X73430666Y-53234814D01*
X73597203Y-53289999D01*
X73699991Y-53300500D01*
X74700008Y-53300499D01*
X74700016Y-53300498D01*
X74700019Y-53300498D01*
X74756302Y-53294748D01*
X74802797Y-53289999D01*
X74969334Y-53234814D01*
X75118656Y-53142712D01*
X75242712Y-53018656D01*
X75334814Y-52869334D01*
X75389999Y-52702797D01*
X75400500Y-52600009D01*
X75400499Y-51799992D01*
X75397681Y-51772409D01*
X75389999Y-51697203D01*
X75386540Y-51686764D01*
X75354415Y-51589818D01*
X76590000Y-51589818D01*
X76590000Y-51810181D01*
X76624473Y-52027835D01*
X76692567Y-52237410D01*
X76792611Y-52433756D01*
X76838932Y-52497513D01*
X77466212Y-51870233D01*
X77477482Y-51912292D01*
X77549890Y-52037708D01*
X77652292Y-52140110D01*
X77777708Y-52212518D01*
X77819765Y-52223787D01*
X77192485Y-52851065D01*
X77192485Y-52851066D01*
X77256243Y-52897388D01*
X77452589Y-52997432D01*
X77662164Y-53065526D01*
X77879819Y-53100000D01*
X78100181Y-53100000D01*
X78317835Y-53065526D01*
X78527410Y-52997432D01*
X78723760Y-52897386D01*
X78787513Y-52851066D01*
X78787514Y-52851066D01*
X78160234Y-52223787D01*
X78202292Y-52212518D01*
X78327708Y-52140110D01*
X78430110Y-52037708D01*
X78502518Y-51912292D01*
X78513787Y-51870235D01*
X79141066Y-52497514D01*
X79141066Y-52497513D01*
X79187386Y-52433760D01*
X79287432Y-52237410D01*
X79355526Y-52027835D01*
X79390000Y-51810181D01*
X79390000Y-51589818D01*
X79355526Y-51372164D01*
X79287432Y-51162589D01*
X79187388Y-50966243D01*
X79141066Y-50902485D01*
X79141065Y-50902485D01*
X78513787Y-51529764D01*
X78502518Y-51487708D01*
X78430110Y-51362292D01*
X78327708Y-51259890D01*
X78202292Y-51187482D01*
X78160232Y-51176212D01*
X78787513Y-50548932D01*
X78723756Y-50502611D01*
X78527410Y-50402567D01*
X78317835Y-50334473D01*
X78100181Y-50300000D01*
X77879819Y-50300000D01*
X77662164Y-50334473D01*
X77452589Y-50402567D01*
X77256233Y-50502616D01*
X77192485Y-50548931D01*
X77192485Y-50548932D01*
X77819765Y-51176212D01*
X77777708Y-51187482D01*
X77652292Y-51259890D01*
X77549890Y-51362292D01*
X77477482Y-51487708D01*
X77466212Y-51529765D01*
X76838932Y-50902485D01*
X76838931Y-50902485D01*
X76792616Y-50966233D01*
X76692567Y-51162589D01*
X76624473Y-51372164D01*
X76590000Y-51589818D01*
X75354415Y-51589818D01*
X75334814Y-51530666D01*
X75242712Y-51381344D01*
X75149049Y-51287681D01*
X75115564Y-51226358D01*
X75120548Y-51156666D01*
X75149049Y-51112319D01*
X75191368Y-51070000D01*
X75242712Y-51018656D01*
X75334814Y-50869334D01*
X75389999Y-50702797D01*
X75400500Y-50600009D01*
X75400499Y-49799992D01*
X75400239Y-49797451D01*
X75389999Y-49697203D01*
X75389998Y-49697200D01*
X75383173Y-49676603D01*
X75334814Y-49530666D01*
X75242712Y-49381344D01*
X75152411Y-49291043D01*
X77175000Y-49291043D01*
X77181065Y-49357792D01*
X77228929Y-49511396D01*
X77312163Y-49649080D01*
X77425919Y-49762836D01*
X77563607Y-49846072D01*
X77563606Y-49846072D01*
X77717197Y-49893932D01*
X77717207Y-49893935D01*
X77749999Y-49896914D01*
X77750000Y-49896914D01*
X78250000Y-49896914D01*
X78282792Y-49893935D01*
X78282802Y-49893932D01*
X78436392Y-49846072D01*
X78574080Y-49762836D01*
X78687836Y-49649080D01*
X78771070Y-49511396D01*
X78818934Y-49357792D01*
X78825000Y-49291043D01*
X78825000Y-49100000D01*
X78250000Y-49100000D01*
X78250000Y-49896914D01*
X77750000Y-49896914D01*
X77750000Y-49100000D01*
X77175000Y-49100000D01*
X77175000Y-49291043D01*
X75152411Y-49291043D01*
X75118656Y-49257288D01*
X74969334Y-49165186D01*
X74802797Y-49110001D01*
X74802795Y-49110000D01*
X74700010Y-49099500D01*
X73699998Y-49099500D01*
X73699980Y-49099501D01*
X73597203Y-49110000D01*
X73597200Y-49110001D01*
X73430668Y-49165185D01*
X73430663Y-49165187D01*
X73281342Y-49257289D01*
X73157289Y-49381342D01*
X73157288Y-49381344D01*
X73089894Y-49490609D01*
X73074481Y-49515597D01*
X73022533Y-49562321D01*
X72968942Y-49574500D01*
X71520750Y-49574500D01*
X71453711Y-49554815D01*
X71451859Y-49553602D01*
X71357584Y-49490609D01*
X71357572Y-49490602D01*
X71211901Y-49430264D01*
X71211889Y-49430261D01*
X71057245Y-49399500D01*
X71057242Y-49399500D01*
X70899558Y-49399500D01*
X70899555Y-49399500D01*
X70744910Y-49430261D01*
X70744898Y-49430264D01*
X70599227Y-49490602D01*
X70599214Y-49490609D01*
X70468111Y-49578210D01*
X70468107Y-49578213D01*
X70356613Y-49689707D01*
X70356610Y-49689711D01*
X70269009Y-49820814D01*
X70269005Y-49820823D01*
X70208664Y-49966498D01*
X70208661Y-49966510D01*
X70177900Y-50121153D01*
X66740000Y-50121153D01*
X66740000Y-49685000D01*
X67240000Y-49685000D01*
X67889999Y-49685000D01*
X67889999Y-49128417D01*
X67883591Y-49057897D01*
X67883590Y-49057892D01*
X67833018Y-48895603D01*
X67745072Y-48750122D01*
X67624877Y-48629927D01*
X67479395Y-48541980D01*
X67479396Y-48541980D01*
X67423392Y-48524529D01*
X67317105Y-48491409D01*
X67317106Y-48491409D01*
X67246572Y-48485000D01*
X67240000Y-48485000D01*
X67240000Y-49685000D01*
X66740000Y-49685000D01*
X66740000Y-48485000D01*
X66739999Y-48484999D01*
X66733436Y-48485000D01*
X66733417Y-48485001D01*
X66662897Y-48491408D01*
X66662892Y-48491409D01*
X66500603Y-48541981D01*
X66355122Y-48629927D01*
X66234928Y-48750121D01*
X66234925Y-48750125D01*
X66146408Y-48896549D01*
X66094880Y-48943736D01*
X66026021Y-48955574D01*
X65961692Y-48928305D01*
X65934175Y-48896548D01*
X65933478Y-48895396D01*
X65933478Y-48895394D01*
X65845472Y-48749815D01*
X65845470Y-48749813D01*
X65845469Y-48749811D01*
X65725188Y-48629530D01*
X65721909Y-48627548D01*
X65579606Y-48541522D01*
X65482608Y-48511296D01*
X65424462Y-48472560D01*
X65396672Y-48408956D01*
X77175000Y-48408956D01*
X77175000Y-48600000D01*
X77750000Y-48600000D01*
X78250000Y-48600000D01*
X78825000Y-48600000D01*
X78825000Y-48408956D01*
X78818934Y-48342207D01*
X78771070Y-48188603D01*
X78687836Y-48050919D01*
X78574080Y-47937163D01*
X78436396Y-47853929D01*
X78282794Y-47806066D01*
X78250000Y-47803085D01*
X78250000Y-48600000D01*
X77750000Y-48600000D01*
X77750000Y-47803085D01*
X77749999Y-47803085D01*
X77717205Y-47806066D01*
X77563603Y-47853929D01*
X77425919Y-47937163D01*
X77312163Y-48050919D01*
X77228929Y-48188603D01*
X77181065Y-48342207D01*
X77175000Y-48408956D01*
X65396672Y-48408956D01*
X65396488Y-48408535D01*
X65395500Y-48392912D01*
X65395500Y-47861047D01*
X65415185Y-47794008D01*
X65467989Y-47748253D01*
X65537147Y-47738309D01*
X65600703Y-47767334D01*
X65625039Y-47795951D01*
X65632682Y-47808343D01*
X65756654Y-47932315D01*
X65905875Y-48024356D01*
X65905880Y-48024358D01*
X66072302Y-48079505D01*
X66072309Y-48079506D01*
X66175019Y-48089999D01*
X66424999Y-48089999D01*
X66925000Y-48089999D01*
X67174972Y-48089999D01*
X67174986Y-48089998D01*
X67277697Y-48079505D01*
X67444119Y-48024358D01*
X67444124Y-48024356D01*
X67593345Y-47932315D01*
X67717315Y-47808345D01*
X67809356Y-47659124D01*
X67809358Y-47659119D01*
X67864505Y-47492697D01*
X67864506Y-47492690D01*
X67874999Y-47389986D01*
X67875000Y-47389973D01*
X67875000Y-47240000D01*
X66925000Y-47240000D01*
X66925000Y-48089999D01*
X66424999Y-48089999D01*
X66425000Y-48089998D01*
X66425000Y-47114000D01*
X66444685Y-47046961D01*
X66497489Y-47001206D01*
X66549000Y-46990000D01*
X66675000Y-46990000D01*
X66675000Y-46864000D01*
X66694685Y-46796961D01*
X66747489Y-46751206D01*
X66799000Y-46740000D01*
X67874999Y-46740000D01*
X67874999Y-46590028D01*
X67874998Y-46590013D01*
X67864505Y-46487302D01*
X67809358Y-46320880D01*
X67809356Y-46320875D01*
X67717315Y-46171654D01*
X67623695Y-46078034D01*
X67590210Y-46016711D01*
X67595194Y-45947019D01*
X67623691Y-45902676D01*
X67717712Y-45808656D01*
X67809814Y-45659334D01*
X67864999Y-45492797D01*
X67875500Y-45390009D01*
X67875499Y-45060450D01*
X67895183Y-44993412D01*
X67911813Y-44972775D01*
X69222771Y-43661819D01*
X69284094Y-43628334D01*
X69310452Y-43625500D01*
X72689548Y-43625500D01*
X72756587Y-43645185D01*
X72777229Y-43661819D01*
X74556333Y-45440923D01*
X74589818Y-45502246D01*
X74584834Y-45571938D01*
X74542962Y-45627871D01*
X74541540Y-45628920D01*
X74537637Y-45631755D01*
X74537631Y-45631760D01*
X74381755Y-45787636D01*
X74381751Y-45787641D01*
X74252186Y-45965974D01*
X74152103Y-46162393D01*
X74152102Y-46162396D01*
X74083984Y-46372047D01*
X74069813Y-46461522D01*
X74049499Y-46589778D01*
X74049499Y-46810222D01*
X74050501Y-46816548D01*
X74083984Y-47027952D01*
X74152102Y-47237603D01*
X74152103Y-47237606D01*
X74252186Y-47434025D01*
X74381751Y-47612358D01*
X74381755Y-47612363D01*
X74537635Y-47768243D01*
X74537640Y-47768247D01*
X74608251Y-47819548D01*
X74715977Y-47897815D01*
X74844374Y-47963237D01*
X74912392Y-47997895D01*
X74912395Y-47997896D01*
X74993833Y-48024356D01*
X75122048Y-48066015D01*
X75339777Y-48100500D01*
X75339778Y-48100500D01*
X75560220Y-48100500D01*
X75560221Y-48100500D01*
X75777950Y-48066015D01*
X75987605Y-47997895D01*
X76184021Y-47897815D01*
X76362364Y-47768242D01*
X76518241Y-47612365D01*
X76647814Y-47434022D01*
X76706826Y-47318204D01*
X76754801Y-47267409D01*
X76817311Y-47250500D01*
X77557262Y-47250500D01*
X77594151Y-47256114D01*
X77717113Y-47294430D01*
X77783909Y-47300500D01*
X78216090Y-47300499D01*
X78216098Y-47300499D01*
X78282882Y-47294431D01*
X78282885Y-47294430D01*
X78282887Y-47294430D01*
X78436602Y-47246531D01*
X78574388Y-47163236D01*
X78688236Y-47049388D01*
X78771531Y-46911602D01*
X78819430Y-46757887D01*
X78825500Y-46691091D01*
X78825499Y-45808910D01*
X78825499Y-45808901D01*
X78819431Y-45742117D01*
X78819428Y-45742106D01*
X78771532Y-45588401D01*
X78771531Y-45588400D01*
X78771531Y-45588398D01*
X78688236Y-45450612D01*
X78688234Y-45450610D01*
X78688233Y-45450608D01*
X78574391Y-45336766D01*
X78436602Y-45253469D01*
X78436596Y-45253467D01*
X78282887Y-45205570D01*
X78282885Y-45205569D01*
X78282883Y-45205569D01*
X78236117Y-45201319D01*
X78216091Y-45199500D01*
X78216088Y-45199500D01*
X77783901Y-45199500D01*
X77717117Y-45205568D01*
X77717106Y-45205571D01*
X77563401Y-45253467D01*
X77425608Y-45336766D01*
X77311766Y-45450608D01*
X77228469Y-45588397D01*
X77228469Y-45588398D01*
X77205411Y-45662391D01*
X77166675Y-45720538D01*
X77102650Y-45748512D01*
X77087027Y-45749500D01*
X76531468Y-45749500D01*
X76464429Y-45729815D01*
X76443787Y-45713181D01*
X76362362Y-45631756D01*
X76362357Y-45631752D01*
X76184022Y-45502185D01*
X76142021Y-45480784D01*
X76091226Y-45432809D01*
X76078665Y-45393974D01*
X76076688Y-45394368D01*
X76051463Y-45267554D01*
X76051462Y-45267547D01*
X76012072Y-45172451D01*
X76004311Y-45153714D01*
X75987255Y-45128189D01*
X75935857Y-45051266D01*
X75935855Y-45051263D01*
X75845636Y-44961044D01*
X75845605Y-44961015D01*
X73506771Y-42622181D01*
X73473286Y-42560858D01*
X73478270Y-42491166D01*
X73520142Y-42435233D01*
X73585606Y-42410816D01*
X73594452Y-42410500D01*
X80375500Y-42410500D01*
X80442539Y-42430185D01*
X80488294Y-42482989D01*
X80499500Y-42534500D01*
X80499500Y-54876000D01*
X80479815Y-54943039D01*
X80427011Y-54988794D01*
X80375500Y-55000000D01*
X53224500Y-55000000D01*
X53157461Y-54980315D01*
X53111706Y-54927511D01*
X53100500Y-54876000D01*
X53100500Y-50670013D01*
X58490000Y-50670013D01*
X58490000Y-50820000D01*
X59440000Y-50820000D01*
X59440000Y-49970000D01*
X59190029Y-49970000D01*
X59190012Y-49970001D01*
X59087302Y-49980494D01*
X58920880Y-50035641D01*
X58920875Y-50035643D01*
X58771654Y-50127684D01*
X58647684Y-50251654D01*
X58555643Y-50400875D01*
X58555641Y-50400880D01*
X58500494Y-50567302D01*
X58500493Y-50567309D01*
X58490000Y-50670013D01*
X53100500Y-50670013D01*
X53100500Y-48661582D01*
X58475001Y-48661582D01*
X58481408Y-48732102D01*
X58481409Y-48732107D01*
X58531981Y-48894396D01*
X58619927Y-49039877D01*
X58740122Y-49160072D01*
X58885604Y-49248019D01*
X58885603Y-49248019D01*
X59047894Y-49298590D01*
X59047893Y-49298590D01*
X59118408Y-49304998D01*
X59118426Y-49304999D01*
X59124999Y-49304998D01*
X59125000Y-49304998D01*
X59125000Y-48105000D01*
X58475001Y-48105000D01*
X58475001Y-48661582D01*
X53100500Y-48661582D01*
X53100500Y-47048427D01*
X58475000Y-47048427D01*
X58475000Y-47605000D01*
X59125000Y-47605000D01*
X59125000Y-46405000D01*
X59124999Y-46404999D01*
X59118436Y-46405000D01*
X59118417Y-46405001D01*
X59047897Y-46411408D01*
X59047892Y-46411409D01*
X58885603Y-46461981D01*
X58740122Y-46549927D01*
X58619927Y-46670122D01*
X58531980Y-46815604D01*
X58481409Y-46977893D01*
X58475000Y-47048427D01*
X53100500Y-47048427D01*
X53100500Y-42534500D01*
X53120185Y-42467461D01*
X53172989Y-42421706D01*
X53224500Y-42410500D01*
X68405547Y-42410500D01*
X68472586Y-42430185D01*
G37*
%TD.AperFunction*%
%TD*%
M02*
