%TF.GenerationSoftware,KiCad,Pcbnew,10.0.6*%
%TF.CreationDate,2026-09-16T12:08:21-05:00*%
%TF.ProjectId,c6gdo,63366764-6f2e-46b6-9963-61645f706362,1.0*%
%TF.SameCoordinates,Original*%
%TF.FileFunction,Copper,L1,Top*%
%TF.FilePolarity,Positive*%
%FSLAX46Y46*%
G04 Gerber Fmt 4.6, Leading zero omitted, Abs format (unit mm)*
G04 Created by KiCad (PCBNEW 10.0.6) date 2026-09-16 12:08:21*
%MOMM*%
%LPD*%
G01*
G04 APERTURE LIST*
G04 Aperture macros list*
%AMRoundRect*
0 Rectangle with rounded corners*
0 $1 Rounding radius*
0 $2 $3 $4 $5 $6 $7 $8 $9 X,Y pos of 4 corners*
0 Add a 4 corners polygon primitive as box body*
4,1,4,$2,$3,$4,$5,$6,$7,$8,$9,$2,$3,0*
0 Add four circle primitives for the rounded corners*
1,1,$1+$1,$2,$3*
1,1,$1+$1,$4,$5*
1,1,$1+$1,$6,$7*
1,1,$1+$1,$8,$9*
0 Add four rect primitives between the rounded corners*
20,1,$1+$1,$2,$3,$4,$5,0*
20,1,$1+$1,$4,$5,$6,$7,0*
20,1,$1+$1,$6,$7,$8,$9,0*
20,1,$1+$1,$8,$9,$2,$3,0*%
G04 Aperture macros list end*
%TA.AperFunction,ComponentPad*%
%ADD10C,1.800000*%
%TD*%
%TA.AperFunction,SMDPad,CuDef*%
%ADD11RoundRect,0.500000X-0.875000X-0.500000X0.875000X-0.500000X0.875000X0.500000X-0.875000X0.500000X0*%
%TD*%
%TA.AperFunction,ViaPad*%
%ADD12C,0.600000*%
%TD*%
%TA.AperFunction,Conductor*%
%ADD13C,0.250000*%
%TD*%
G04 APERTURE END LIST*
D10*
%TO.P,J1,1,Pin_1_1*%
%TO.N,GND*%
X77990000Y-51700000D03*
%TO.P,J1,2,Pin_2_2*%
%TO.N,RED{slash}CTRL*%
X75449999Y-46700000D03*
%TD*%
D11*
%TO.P,U1,1,GPIO0_A0_D0_1*%
%TO.N,unconnected-(U1-GPIO0_A0_D0-Pad1)*%
X54813400Y-44836500D03*
%TO.P,U1,2,GPIO1_A1_D1_2*%
%TO.N,unconnected-(U1-GPIO1_A1_D1-Pad2)*%
X54813400Y-47376500D03*
%TO.P,U1,3,GPIO2_A2_D2_3*%
%TO.N,unconnected-(U1-GPIO2_A2_D2-Pad3)*%
X54813400Y-49916500D03*
%TO.P,U1,4,GPIO21_D3_4*%
%TO.N,/ESP_TX*%
X54813400Y-52456500D03*
%TO.P,U1,5,GPIO22_D4_SDA_5*%
%TO.N,unconnected-(U1-GPIO22_D4_SDA-Pad5)*%
X54813400Y-54996500D03*
%TO.P,U1,6,GPIO23_D5_SCL_6*%
%TO.N,unconnected-(U1-GPIO23_D5_SCL-Pad6)*%
X54813400Y-57536500D03*
%TO.P,U1,7,GPIO16_D6_TX_7*%
%TO.N,unconnected-(U1-GPIO16_D6_TX-Pad7)*%
X54813400Y-60076500D03*
%TO.P,U1,8,GPIO17_D7_RX_8*%
%TO.N,unconnected-(U1-GPIO17_D7_RX-Pad8)*%
X70978400Y-60076500D03*
%TO.P,U1,9,GPIO19_D8_SCK_9*%
%TO.N,unconnected-(U1-GPIO19_D8_SCK-Pad9)*%
X70978400Y-57536500D03*
%TO.P,U1,10,GPIO20_D9_MISO_10*%
%TO.N,unconnected-(U1-GPIO20_D9_MISO-Pad10)*%
X70978400Y-54996500D03*
%TO.P,U1,11,GPIO18_D10_MOSI_11*%
%TO.N,/ESP_RX*%
X70978400Y-52456500D03*
%TO.P,U1,12,3V3_12*%
%TO.N,+3V3*%
X70978400Y-49916500D03*
%TO.P,U1,13,GND_13*%
%TO.N,GND*%
X70978400Y-47376500D03*
%TO.P,U1,14,VBUS_14*%
%TO.N,unconnected-(U1-VBUS-Pad14)*%
X70978400Y-44836500D03*
%TD*%
D12*
%TO.N,GND*%
X68750000Y-44750000D03*
X60400000Y-42900000D03*
X60400000Y-54600000D03*
X57200000Y-48750000D03*
X66800000Y-48750000D03*
X66800000Y-54600000D03*
X57200000Y-51675000D03*
X65424218Y-51499190D03*
X73200000Y-54600000D03*
X62700000Y-47900000D03*
X76400000Y-48750000D03*
X66800000Y-51675000D03*
X79600000Y-48750000D03*
X63600000Y-54600000D03*
X73200000Y-45825000D03*
X57200000Y-54600000D03*
X79600000Y-42900000D03*
X79600000Y-51675000D03*
X66800000Y-42900000D03*
X57200000Y-45825000D03*
X62865000Y-45773886D03*
X76400000Y-51675000D03*
X70978400Y-47376500D03*
X73200000Y-48750000D03*
X63103881Y-49833670D03*
X54000000Y-42900000D03*
X57200000Y-42900000D03*
X79600000Y-54600000D03*
X76400000Y-42900000D03*
X79600000Y-45825000D03*
X60393762Y-49579170D03*
%TO.N,/ESP_TX*%
X58055000Y-53070000D03*
%TO.N,/ESP_RX*%
X67310000Y-53340000D03*
X70978400Y-52456500D03*
%TO.N,+3V3*%
X70978400Y-50200000D03*
%TD*%
%TO.N,/ESP_TX*%
D13*
X57985000Y-53000000D02*
X55356900Y-53000000D01*
X55356900Y-53000000D02*
X54813400Y-52456500D01*
X58055000Y-53070000D02*
X57985000Y-53000000D01*
%TO.N,/ESP_RX*%
X67310000Y-53340000D02*
X70094900Y-53340000D01*
X70094900Y-53340000D02*
X70978400Y-52456500D01*
%TD*%
%TA.AperFunction,Conductor*%
%TO.N,GND*%
G36*
X80442539Y-42430185D02*
G01*
X80488294Y-42482989D01*
X80499500Y-42534500D01*
X80499500Y-54876000D01*
X80479815Y-54943039D01*
X80427011Y-54988794D01*
X80375500Y-55000000D01*
X72977900Y-55000000D01*
X72910861Y-54980315D01*
X72865106Y-54927511D01*
X72853900Y-54876000D01*
X72853899Y-54438471D01*
X72853899Y-54438468D01*
X72853899Y-54438464D01*
X72843286Y-54319082D01*
X72787309Y-54123451D01*
X72693098Y-53943093D01*
X72580383Y-53804859D01*
X72553275Y-53740465D01*
X72565284Y-53671635D01*
X72580381Y-53648142D01*
X72693098Y-53509907D01*
X72787309Y-53329549D01*
X72843286Y-53133918D01*
X72853900Y-53014537D01*
X72853899Y-52448213D01*
X72853899Y-51898471D01*
X72853899Y-51898468D01*
X72853899Y-51898464D01*
X72843286Y-51779082D01*
X72789131Y-51589818D01*
X76590000Y-51589818D01*
X76590000Y-51810181D01*
X76624473Y-52027835D01*
X76692567Y-52237410D01*
X76792611Y-52433756D01*
X76838932Y-52497513D01*
X77466212Y-51870233D01*
X77477482Y-51912292D01*
X77549890Y-52037708D01*
X77652292Y-52140110D01*
X77777708Y-52212518D01*
X77819765Y-52223787D01*
X77192485Y-52851065D01*
X77192485Y-52851066D01*
X77256243Y-52897388D01*
X77452589Y-52997432D01*
X77662164Y-53065526D01*
X77879819Y-53100000D01*
X78100181Y-53100000D01*
X78317835Y-53065526D01*
X78527410Y-52997432D01*
X78723760Y-52897386D01*
X78787513Y-52851066D01*
X78787514Y-52851066D01*
X78160234Y-52223787D01*
X78202292Y-52212518D01*
X78327708Y-52140110D01*
X78430110Y-52037708D01*
X78502518Y-51912292D01*
X78513787Y-51870235D01*
X79141066Y-52497514D01*
X79141066Y-52497513D01*
X79187386Y-52433760D01*
X79287432Y-52237410D01*
X79355526Y-52027835D01*
X79390000Y-51810181D01*
X79390000Y-51589818D01*
X79355526Y-51372164D01*
X79287432Y-51162589D01*
X79187388Y-50966243D01*
X79141066Y-50902485D01*
X79141065Y-50902485D01*
X78513787Y-51529764D01*
X78502518Y-51487708D01*
X78430110Y-51362292D01*
X78327708Y-51259890D01*
X78202292Y-51187482D01*
X78160232Y-51176212D01*
X78787513Y-50548932D01*
X78723756Y-50502611D01*
X78527410Y-50402567D01*
X78317835Y-50334473D01*
X78100181Y-50300000D01*
X77879819Y-50300000D01*
X77662164Y-50334473D01*
X77452589Y-50402567D01*
X77256233Y-50502616D01*
X77192485Y-50548931D01*
X77192485Y-50548932D01*
X77819765Y-51176212D01*
X77777708Y-51187482D01*
X77652292Y-51259890D01*
X77549890Y-51362292D01*
X77477482Y-51487708D01*
X77466212Y-51529765D01*
X76838932Y-50902485D01*
X76838931Y-50902485D01*
X76792616Y-50966233D01*
X76692567Y-51162589D01*
X76624473Y-51372164D01*
X76590000Y-51589818D01*
X72789131Y-51589818D01*
X72787309Y-51583451D01*
X72693098Y-51403093D01*
X72580383Y-51264859D01*
X72553275Y-51200465D01*
X72565284Y-51131635D01*
X72580381Y-51108142D01*
X72693098Y-50969907D01*
X72787309Y-50789549D01*
X72843286Y-50593918D01*
X72853900Y-50474537D01*
X72853899Y-49358464D01*
X72843286Y-49239082D01*
X72787309Y-49043451D01*
X72693098Y-48863093D01*
X72580061Y-48724464D01*
X72552952Y-48660068D01*
X72564961Y-48591238D01*
X72580062Y-48567741D01*
X72692678Y-48429630D01*
X72786842Y-48249361D01*
X72842790Y-48053828D01*
X72842791Y-48053825D01*
X72853399Y-47934500D01*
X72853400Y-47934498D01*
X72853400Y-47626500D01*
X69103400Y-47626500D01*
X69103400Y-47934500D01*
X69114008Y-48053825D01*
X69114009Y-48053828D01*
X69169957Y-48249361D01*
X69264121Y-48429629D01*
X69376738Y-48567742D01*
X69403847Y-48632138D01*
X69391838Y-48700968D01*
X69376738Y-48724463D01*
X69263705Y-48863087D01*
X69169489Y-49043454D01*
X69113514Y-49239083D01*
X69113513Y-49239086D01*
X69102900Y-49358466D01*
X69102900Y-50474528D01*
X69102901Y-50474534D01*
X69113513Y-50593915D01*
X69169489Y-50789545D01*
X69169490Y-50789548D01*
X69169491Y-50789549D01*
X69263702Y-50969907D01*
X69263704Y-50969909D01*
X69376415Y-51108139D01*
X69403524Y-51172536D01*
X69391515Y-51241365D01*
X69376415Y-51264861D01*
X69263704Y-51403090D01*
X69169489Y-51583454D01*
X69136142Y-51699999D01*
X69115424Y-51772409D01*
X69113514Y-51779083D01*
X69113513Y-51779086D01*
X69110749Y-51810181D01*
X69102900Y-51898463D01*
X69102900Y-52302011D01*
X69102901Y-52590500D01*
X69083217Y-52657539D01*
X69030413Y-52703294D01*
X68978901Y-52714500D01*
X67852350Y-52714500D01*
X67785311Y-52694815D01*
X67783459Y-52693602D01*
X67689184Y-52630609D01*
X67689172Y-52630602D01*
X67543501Y-52570264D01*
X67543489Y-52570261D01*
X67388845Y-52539500D01*
X67388842Y-52539500D01*
X67231158Y-52539500D01*
X67231155Y-52539500D01*
X67076510Y-52570261D01*
X67076498Y-52570264D01*
X66930827Y-52630602D01*
X66930814Y-52630609D01*
X66799711Y-52718210D01*
X66799707Y-52718213D01*
X66688213Y-52829707D01*
X66688210Y-52829711D01*
X66600609Y-52960814D01*
X66600602Y-52960827D01*
X66540264Y-53106498D01*
X66540261Y-53106510D01*
X66509500Y-53261153D01*
X66509500Y-53418846D01*
X66540261Y-53573489D01*
X66540264Y-53573501D01*
X66600602Y-53719172D01*
X66600609Y-53719185D01*
X66688210Y-53850288D01*
X66688213Y-53850292D01*
X66799707Y-53961786D01*
X66799711Y-53961789D01*
X66930814Y-54049390D01*
X66930827Y-54049397D01*
X67070250Y-54107147D01*
X67076503Y-54109737D01*
X67231153Y-54140499D01*
X67231156Y-54140500D01*
X67231158Y-54140500D01*
X67388844Y-54140500D01*
X67388845Y-54140499D01*
X67543497Y-54109737D01*
X67689179Y-54049394D01*
X67783459Y-53986398D01*
X67850136Y-53965520D01*
X67852350Y-53965500D01*
X69050229Y-53965500D01*
X69117268Y-53985185D01*
X69163023Y-54037989D01*
X69172967Y-54107147D01*
X69169445Y-54123611D01*
X69113514Y-54319083D01*
X69113513Y-54319086D01*
X69106007Y-54403516D01*
X69102900Y-54438463D01*
X69102900Y-54876002D01*
X69083217Y-54943039D01*
X69030413Y-54988794D01*
X68978901Y-55000000D01*
X56812900Y-55000000D01*
X56745861Y-54980315D01*
X56700106Y-54927511D01*
X56688900Y-54876000D01*
X56688899Y-54438471D01*
X56688899Y-54438468D01*
X56688899Y-54438464D01*
X56678286Y-54319082D01*
X56622309Y-54123451D01*
X56528098Y-53943093D01*
X56443823Y-53839738D01*
X56434139Y-53827861D01*
X56407030Y-53763464D01*
X56419039Y-53694635D01*
X56466355Y-53643224D01*
X56530241Y-53625500D01*
X57427059Y-53625500D01*
X57494098Y-53645185D01*
X57514740Y-53661819D01*
X57544707Y-53691786D01*
X57544711Y-53691789D01*
X57675814Y-53779390D01*
X57675827Y-53779397D01*
X57821498Y-53839735D01*
X57821503Y-53839737D01*
X57976153Y-53870499D01*
X57976156Y-53870500D01*
X57976158Y-53870500D01*
X58133844Y-53870500D01*
X58133845Y-53870499D01*
X58288497Y-53839737D01*
X58434179Y-53779394D01*
X58565289Y-53691789D01*
X58676789Y-53580289D01*
X58764394Y-53449179D01*
X58824737Y-53303497D01*
X58855500Y-53148842D01*
X58855500Y-52991158D01*
X58855500Y-52991155D01*
X58855499Y-52991153D01*
X58849467Y-52960827D01*
X58824737Y-52836503D01*
X58775740Y-52718213D01*
X58764397Y-52690827D01*
X58764390Y-52690814D01*
X58676789Y-52559711D01*
X58676786Y-52559707D01*
X58565292Y-52448213D01*
X58565288Y-52448210D01*
X58434185Y-52360609D01*
X58434172Y-52360602D01*
X58288501Y-52300264D01*
X58288489Y-52300261D01*
X58133845Y-52269500D01*
X58133842Y-52269500D01*
X57976158Y-52269500D01*
X57976155Y-52269500D01*
X57821510Y-52300261D01*
X57821498Y-52300264D01*
X57670193Y-52362937D01*
X57669698Y-52361743D01*
X57618767Y-52374500D01*
X56812899Y-52374500D01*
X56745860Y-52354815D01*
X56700105Y-52302011D01*
X56688899Y-52250500D01*
X56688899Y-51898471D01*
X56688899Y-51898468D01*
X56688899Y-51898464D01*
X56678286Y-51779082D01*
X56622309Y-51583451D01*
X56528098Y-51403093D01*
X56415383Y-51264859D01*
X56388275Y-51200465D01*
X56400284Y-51131635D01*
X56415381Y-51108142D01*
X56528098Y-50969907D01*
X56622309Y-50789549D01*
X56678286Y-50593918D01*
X56688900Y-50474537D01*
X56688899Y-49358464D01*
X56678286Y-49239082D01*
X56622309Y-49043451D01*
X56528098Y-48863093D01*
X56415383Y-48724859D01*
X56388275Y-48660465D01*
X56400284Y-48591635D01*
X56415381Y-48568142D01*
X56528098Y-48429907D01*
X56622309Y-48249549D01*
X56678286Y-48053918D01*
X56688900Y-47934537D01*
X56688899Y-46818464D01*
X56678286Y-46699082D01*
X56622309Y-46503451D01*
X56528098Y-46323093D01*
X56415383Y-46184859D01*
X56388275Y-46120465D01*
X56400284Y-46051635D01*
X56415381Y-46028142D01*
X56528098Y-45889907D01*
X56622309Y-45709549D01*
X56678286Y-45513918D01*
X56688900Y-45394537D01*
X56688899Y-44278466D01*
X69102900Y-44278466D01*
X69102900Y-45394528D01*
X69102901Y-45394534D01*
X69113513Y-45513915D01*
X69169489Y-45709545D01*
X69169490Y-45709548D01*
X69169491Y-45709549D01*
X69263702Y-45889907D01*
X69325730Y-45965978D01*
X69376738Y-46028535D01*
X69403847Y-46092932D01*
X69391838Y-46161761D01*
X69376738Y-46185257D01*
X69264121Y-46323370D01*
X69169957Y-46503638D01*
X69114009Y-46699171D01*
X69114008Y-46699174D01*
X69103400Y-46818499D01*
X69103400Y-47126500D01*
X72853400Y-47126500D01*
X72853400Y-46818502D01*
X72853399Y-46818499D01*
X72842791Y-46699174D01*
X72819856Y-46619018D01*
X72819856Y-46619017D01*
X72811490Y-46589778D01*
X74049499Y-46589778D01*
X74049499Y-46810222D01*
X74066741Y-46919086D01*
X74083984Y-47027952D01*
X74152102Y-47237603D01*
X74152103Y-47237606D01*
X74252186Y-47434025D01*
X74381751Y-47612358D01*
X74381755Y-47612363D01*
X74537635Y-47768243D01*
X74537640Y-47768247D01*
X74693191Y-47881260D01*
X74715977Y-47897815D01*
X74844374Y-47963237D01*
X74912392Y-47997895D01*
X74912395Y-47997896D01*
X75017220Y-48031955D01*
X75122048Y-48066015D01*
X75339777Y-48100500D01*
X75339778Y-48100500D01*
X75560220Y-48100500D01*
X75560221Y-48100500D01*
X75777950Y-48066015D01*
X75987605Y-47997895D01*
X76184021Y-47897815D01*
X76362364Y-47768242D01*
X76518241Y-47612365D01*
X76647814Y-47434022D01*
X76747894Y-47237606D01*
X76816014Y-47027951D01*
X76850499Y-46810222D01*
X76850499Y-46589778D01*
X76816014Y-46372049D01*
X76747894Y-46162394D01*
X76747894Y-46162393D01*
X76712501Y-46092932D01*
X76647814Y-45965978D01*
X76592546Y-45889907D01*
X76518246Y-45787641D01*
X76518242Y-45787636D01*
X76362362Y-45631756D01*
X76362357Y-45631752D01*
X76184024Y-45502187D01*
X76184023Y-45502186D01*
X76184021Y-45502185D01*
X76121095Y-45470122D01*
X75987605Y-45402104D01*
X75987602Y-45402103D01*
X75777951Y-45333985D01*
X75669085Y-45316742D01*
X75560221Y-45299500D01*
X75339777Y-45299500D01*
X75267200Y-45310995D01*
X75122046Y-45333985D01*
X74912395Y-45402103D01*
X74912392Y-45402104D01*
X74715973Y-45502187D01*
X74537640Y-45631752D01*
X74537635Y-45631756D01*
X74381755Y-45787636D01*
X74381751Y-45787641D01*
X74252186Y-45965974D01*
X74152103Y-46162393D01*
X74152102Y-46162396D01*
X74083984Y-46372047D01*
X74083984Y-46372049D01*
X74049499Y-46589778D01*
X72811490Y-46589778D01*
X72786842Y-46503638D01*
X72692678Y-46323370D01*
X72580061Y-46185257D01*
X72552952Y-46120861D01*
X72564961Y-46052031D01*
X72580058Y-46028539D01*
X72693098Y-45889907D01*
X72787309Y-45709549D01*
X72843286Y-45513918D01*
X72853900Y-45394537D01*
X72853899Y-44278464D01*
X72843286Y-44159082D01*
X72787309Y-43963451D01*
X72693098Y-43783093D01*
X72641084Y-43719303D01*
X72564509Y-43625390D01*
X72406809Y-43496804D01*
X72406810Y-43496804D01*
X72406807Y-43496802D01*
X72226449Y-43402591D01*
X72226448Y-43402590D01*
X72226445Y-43402589D01*
X72109229Y-43369050D01*
X72030818Y-43346614D01*
X72030815Y-43346613D01*
X72030813Y-43346613D01*
X71964502Y-43340717D01*
X71911437Y-43336000D01*
X71911432Y-43336000D01*
X70045371Y-43336000D01*
X70045365Y-43336000D01*
X70045364Y-43336001D01*
X70033716Y-43337036D01*
X69925984Y-43346613D01*
X69730354Y-43402589D01*
X69640172Y-43449696D01*
X69549993Y-43496802D01*
X69549991Y-43496803D01*
X69549990Y-43496804D01*
X69392290Y-43625390D01*
X69263704Y-43783090D01*
X69169489Y-43963454D01*
X69113514Y-44159083D01*
X69113513Y-44159086D01*
X69102900Y-44278466D01*
X56688899Y-44278466D01*
X56688899Y-44278464D01*
X56678286Y-44159082D01*
X56622309Y-43963451D01*
X56528098Y-43783093D01*
X56476084Y-43719303D01*
X56399509Y-43625390D01*
X56241809Y-43496804D01*
X56241810Y-43496804D01*
X56241807Y-43496802D01*
X56061449Y-43402591D01*
X56061448Y-43402590D01*
X56061445Y-43402589D01*
X55944229Y-43369050D01*
X55865818Y-43346614D01*
X55865815Y-43346613D01*
X55865813Y-43346613D01*
X55799502Y-43340717D01*
X55746437Y-43336000D01*
X55746432Y-43336000D01*
X53880371Y-43336000D01*
X53880365Y-43336000D01*
X53880364Y-43336001D01*
X53868716Y-43337036D01*
X53760984Y-43346613D01*
X53565354Y-43402589D01*
X53475172Y-43449696D01*
X53384993Y-43496802D01*
X53384991Y-43496803D01*
X53384990Y-43496804D01*
X53302861Y-43563772D01*
X53238465Y-43590881D01*
X53169635Y-43578872D01*
X53118224Y-43531556D01*
X53100500Y-43467670D01*
X53100500Y-42534500D01*
X53120185Y-42467461D01*
X53172989Y-42421706D01*
X53224500Y-42410500D01*
X80375500Y-42410500D01*
X80442539Y-42430185D01*
G37*
%TD.AperFunction*%
%TD*%
M02*
