%TF.GenerationSoftware,KiCad,Pcbnew,10.0.6*%
%TF.CreationDate,2026-09-17T10:22:28-05:00*%
%TF.ProjectId,c6gdo,63366764-6f2e-46b6-9963-61645f706362,1.1*%
%TF.SameCoordinates,Original*%
%TF.FileFunction,Legend,Top*%
%TF.FilePolarity,Positive*%
%FSLAX46Y46*%
G04 Gerber Fmt 4.6, Leading zero omitted, Abs format (unit mm)*
G04 Created by KiCad (PCBNEW 10.0.6) date 2026-09-17 10:22:28*
%MOMM*%
%LPD*%
G01*
G04 APERTURE LIST*
%ADD10C,0.150000*%
%ADD11C,0.152400*%
%ADD12C,0.504000*%
G04 APERTURE END LIST*
D10*
X58514286Y-57659875D02*
X59180952Y-58659875D01*
X59180952Y-57659875D02*
X58514286Y-58659875D01*
X59561905Y-58659875D02*
X59561905Y-57659875D01*
X59990476Y-58374160D02*
X60466666Y-58374160D01*
X59895238Y-58659875D02*
X60228571Y-57659875D01*
X60228571Y-57659875D02*
X60561904Y-58659875D01*
X61085714Y-57659875D02*
X61276190Y-57659875D01*
X61276190Y-57659875D02*
X61371428Y-57707494D01*
X61371428Y-57707494D02*
X61466666Y-57802732D01*
X61466666Y-57802732D02*
X61514285Y-57993208D01*
X61514285Y-57993208D02*
X61514285Y-58326541D01*
X61514285Y-58326541D02*
X61466666Y-58517017D01*
X61466666Y-58517017D02*
X61371428Y-58612256D01*
X61371428Y-58612256D02*
X61276190Y-58659875D01*
X61276190Y-58659875D02*
X61085714Y-58659875D01*
X61085714Y-58659875D02*
X60990476Y-58612256D01*
X60990476Y-58612256D02*
X60895238Y-58517017D01*
X60895238Y-58517017D02*
X60847619Y-58326541D01*
X60847619Y-58326541D02*
X60847619Y-57993208D01*
X60847619Y-57993208D02*
X60895238Y-57802732D01*
X60895238Y-57802732D02*
X60990476Y-57707494D01*
X60990476Y-57707494D02*
X61085714Y-57659875D01*
X62704762Y-58136065D02*
X63038095Y-58136065D01*
X63180952Y-58659875D02*
X62704762Y-58659875D01*
X62704762Y-58659875D02*
X62704762Y-57659875D01*
X62704762Y-57659875D02*
X63180952Y-57659875D01*
X63561905Y-58612256D02*
X63704762Y-58659875D01*
X63704762Y-58659875D02*
X63942857Y-58659875D01*
X63942857Y-58659875D02*
X64038095Y-58612256D01*
X64038095Y-58612256D02*
X64085714Y-58564636D01*
X64085714Y-58564636D02*
X64133333Y-58469398D01*
X64133333Y-58469398D02*
X64133333Y-58374160D01*
X64133333Y-58374160D02*
X64085714Y-58278922D01*
X64085714Y-58278922D02*
X64038095Y-58231303D01*
X64038095Y-58231303D02*
X63942857Y-58183684D01*
X63942857Y-58183684D02*
X63752381Y-58136065D01*
X63752381Y-58136065D02*
X63657143Y-58088446D01*
X63657143Y-58088446D02*
X63609524Y-58040827D01*
X63609524Y-58040827D02*
X63561905Y-57945589D01*
X63561905Y-57945589D02*
X63561905Y-57850351D01*
X63561905Y-57850351D02*
X63609524Y-57755113D01*
X63609524Y-57755113D02*
X63657143Y-57707494D01*
X63657143Y-57707494D02*
X63752381Y-57659875D01*
X63752381Y-57659875D02*
X63990476Y-57659875D01*
X63990476Y-57659875D02*
X64133333Y-57707494D01*
X64561905Y-58659875D02*
X64561905Y-57659875D01*
X64561905Y-57659875D02*
X64942857Y-57659875D01*
X64942857Y-57659875D02*
X65038095Y-57707494D01*
X65038095Y-57707494D02*
X65085714Y-57755113D01*
X65085714Y-57755113D02*
X65133333Y-57850351D01*
X65133333Y-57850351D02*
X65133333Y-57993208D01*
X65133333Y-57993208D02*
X65085714Y-58088446D01*
X65085714Y-58088446D02*
X65038095Y-58136065D01*
X65038095Y-58136065D02*
X64942857Y-58183684D01*
X64942857Y-58183684D02*
X64561905Y-58183684D01*
X65466667Y-57659875D02*
X66085714Y-57659875D01*
X66085714Y-57659875D02*
X65752381Y-58040827D01*
X65752381Y-58040827D02*
X65895238Y-58040827D01*
X65895238Y-58040827D02*
X65990476Y-58088446D01*
X65990476Y-58088446D02*
X66038095Y-58136065D01*
X66038095Y-58136065D02*
X66085714Y-58231303D01*
X66085714Y-58231303D02*
X66085714Y-58469398D01*
X66085714Y-58469398D02*
X66038095Y-58564636D01*
X66038095Y-58564636D02*
X65990476Y-58612256D01*
X65990476Y-58612256D02*
X65895238Y-58659875D01*
X65895238Y-58659875D02*
X65609524Y-58659875D01*
X65609524Y-58659875D02*
X65514286Y-58612256D01*
X65514286Y-58612256D02*
X65466667Y-58564636D01*
X66466667Y-57755113D02*
X66514286Y-57707494D01*
X66514286Y-57707494D02*
X66609524Y-57659875D01*
X66609524Y-57659875D02*
X66847619Y-57659875D01*
X66847619Y-57659875D02*
X66942857Y-57707494D01*
X66942857Y-57707494D02*
X66990476Y-57755113D01*
X66990476Y-57755113D02*
X67038095Y-57850351D01*
X67038095Y-57850351D02*
X67038095Y-57945589D01*
X67038095Y-57945589D02*
X66990476Y-58088446D01*
X66990476Y-58088446D02*
X66419048Y-58659875D01*
X66419048Y-58659875D02*
X67038095Y-58659875D01*
X61133333Y-60174580D02*
X61085714Y-60222200D01*
X61085714Y-60222200D02*
X60942857Y-60269819D01*
X60942857Y-60269819D02*
X60847619Y-60269819D01*
X60847619Y-60269819D02*
X60704762Y-60222200D01*
X60704762Y-60222200D02*
X60609524Y-60126961D01*
X60609524Y-60126961D02*
X60561905Y-60031723D01*
X60561905Y-60031723D02*
X60514286Y-59841247D01*
X60514286Y-59841247D02*
X60514286Y-59698390D01*
X60514286Y-59698390D02*
X60561905Y-59507914D01*
X60561905Y-59507914D02*
X60609524Y-59412676D01*
X60609524Y-59412676D02*
X60704762Y-59317438D01*
X60704762Y-59317438D02*
X60847619Y-59269819D01*
X60847619Y-59269819D02*
X60942857Y-59269819D01*
X60942857Y-59269819D02*
X61085714Y-59317438D01*
X61085714Y-59317438D02*
X61133333Y-59365057D01*
X61990476Y-59269819D02*
X61800000Y-59269819D01*
X61800000Y-59269819D02*
X61704762Y-59317438D01*
X61704762Y-59317438D02*
X61657143Y-59365057D01*
X61657143Y-59365057D02*
X61561905Y-59507914D01*
X61561905Y-59507914D02*
X61514286Y-59698390D01*
X61514286Y-59698390D02*
X61514286Y-60079342D01*
X61514286Y-60079342D02*
X61561905Y-60174580D01*
X61561905Y-60174580D02*
X61609524Y-60222200D01*
X61609524Y-60222200D02*
X61704762Y-60269819D01*
X61704762Y-60269819D02*
X61895238Y-60269819D01*
X61895238Y-60269819D02*
X61990476Y-60222200D01*
X61990476Y-60222200D02*
X62038095Y-60174580D01*
X62038095Y-60174580D02*
X62085714Y-60079342D01*
X62085714Y-60079342D02*
X62085714Y-59841247D01*
X62085714Y-59841247D02*
X62038095Y-59746009D01*
X62038095Y-59746009D02*
X61990476Y-59698390D01*
X61990476Y-59698390D02*
X61895238Y-59650771D01*
X61895238Y-59650771D02*
X61704762Y-59650771D01*
X61704762Y-59650771D02*
X61609524Y-59698390D01*
X61609524Y-59698390D02*
X61561905Y-59746009D01*
X61561905Y-59746009D02*
X61514286Y-59841247D01*
X63228571Y-59222200D02*
X62371429Y-60507914D01*
X64133333Y-60174580D02*
X64085714Y-60222200D01*
X64085714Y-60222200D02*
X63942857Y-60269819D01*
X63942857Y-60269819D02*
X63847619Y-60269819D01*
X63847619Y-60269819D02*
X63704762Y-60222200D01*
X63704762Y-60222200D02*
X63609524Y-60126961D01*
X63609524Y-60126961D02*
X63561905Y-60031723D01*
X63561905Y-60031723D02*
X63514286Y-59841247D01*
X63514286Y-59841247D02*
X63514286Y-59698390D01*
X63514286Y-59698390D02*
X63561905Y-59507914D01*
X63561905Y-59507914D02*
X63609524Y-59412676D01*
X63609524Y-59412676D02*
X63704762Y-59317438D01*
X63704762Y-59317438D02*
X63847619Y-59269819D01*
X63847619Y-59269819D02*
X63942857Y-59269819D01*
X63942857Y-59269819D02*
X64085714Y-59317438D01*
X64085714Y-59317438D02*
X64133333Y-59365057D01*
X65038095Y-59269819D02*
X64561905Y-59269819D01*
X64561905Y-59269819D02*
X64514286Y-59746009D01*
X64514286Y-59746009D02*
X64561905Y-59698390D01*
X64561905Y-59698390D02*
X64657143Y-59650771D01*
X64657143Y-59650771D02*
X64895238Y-59650771D01*
X64895238Y-59650771D02*
X64990476Y-59698390D01*
X64990476Y-59698390D02*
X65038095Y-59746009D01*
X65038095Y-59746009D02*
X65085714Y-59841247D01*
X65085714Y-59841247D02*
X65085714Y-60079342D01*
X65085714Y-60079342D02*
X65038095Y-60174580D01*
X65038095Y-60174580D02*
X64990476Y-60222200D01*
X64990476Y-60222200D02*
X64895238Y-60269819D01*
X64895238Y-60269819D02*
X64657143Y-60269819D01*
X64657143Y-60269819D02*
X64561905Y-60222200D01*
X64561905Y-60222200D02*
X64514286Y-60174580D01*
X75166666Y-48654819D02*
X75166666Y-49369104D01*
X75166666Y-49369104D02*
X75119047Y-49511961D01*
X75119047Y-49511961D02*
X75023809Y-49607200D01*
X75023809Y-49607200D02*
X74880952Y-49654819D01*
X74880952Y-49654819D02*
X74785714Y-49654819D01*
X76166666Y-49654819D02*
X75595238Y-49654819D01*
X75880952Y-49654819D02*
X75880952Y-48654819D01*
X75880952Y-48654819D02*
X75785714Y-48797676D01*
X75785714Y-48797676D02*
X75690476Y-48892914D01*
X75690476Y-48892914D02*
X75595238Y-48940533D01*
%TO.C,J1*%
D11*
X74082999Y-42050000D02*
X74082999Y-54127000D01*
X74082999Y-54127000D02*
X80850000Y-54127000D01*
X80850000Y-42050000D02*
X74082999Y-42050000D01*
X80850000Y-54127000D02*
X80850000Y-42050000D01*
%TO.C,U1*%
D10*
X55883400Y-62756500D02*
X69853400Y-62756500D01*
X69853400Y-42156500D02*
X55883400Y-42156500D01*
X54227500Y-43656500D02*
G75*
G02*
X55883400Y-42156500I1655848J-163944D01*
G01*
X55883400Y-62756500D02*
G75*
G02*
X54119604Y-61256499I-70J1786910D01*
G01*
X69853400Y-42156500D02*
G75*
G02*
X71512918Y-43656498I0J-1668000D01*
G01*
X71617200Y-61256500D02*
G75*
G02*
X69853400Y-62756483I-1763700J286900D01*
G01*
D12*
X55430400Y-43206500D02*
G75*
G02*
X54926400Y-43206500I-252000J0D01*
G01*
X54926400Y-43206500D02*
G75*
G02*
X55430400Y-43206500I252000J0D01*
G01*
%TD*%
M02*
