M48
; DRILL file KiCad 10.0.6 date 2026-09-16T20:20:41
; FORMAT={-:-/ absolute / metric / decimal}
; #@! TF.CreationDate,2026-09-16T20:20:41-05:00
; #@! TF.GenerationSoftware,Kicad,Pcbnew,10.0.6
; #@! TF.FileFunction,Plated,1,2,PTH
FMAT,2
METRIC
; #@! TA.AperFunction,Plated,PTH,ViaDrill
T1C0.300
; #@! TA.AperFunction,Plated,PTH,ComponentDrill
T2C1.100
%
G90
G05
T1
X54.0Y-42.9
X57.2Y-42.9
X57.2Y-45.825
X57.2Y-48.75
X57.2Y-51.675
X57.2Y-54.6
X58.055Y-53.07
X60.394Y-49.579
X60.4Y-42.9
X60.4Y-54.6
X62.7Y-47.9
X62.865Y-45.774
X63.104Y-49.834
X63.6Y-54.6
X65.7Y-48.2
X66.8Y-42.9
X66.8Y-54.6
X67.2Y-51.8
X67.31Y-53.34
X68.75Y-44.75
X70.978Y-47.377
X70.978Y-50.2
X70.978Y-52.456
X73.2Y-45.825
X73.2Y-48.75
X73.2Y-54.6
X76.4Y-42.9
X76.4Y-48.75
X76.4Y-51.675
X79.6Y-42.9
X79.6Y-45.825
X79.6Y-48.75
X79.6Y-51.675
X79.6Y-54.6
T2
X75.45Y-46.7
X77.99Y-51.7
M30
